<svg width="1252" height="660" viewBox="0 0 1252 660" fill="none" xmlns="http://www.w3.org/2000/svg">
<path d="M17.5 160V20H145.5V160H105.5V56H57.5V160H17.5ZM185.206 160L214.806 108L157.406 20H203.806L235.606 71.2L264.606 20H307.006L227.606 160H185.206ZM351.156 160V56H307.156V20H435.156V56H391.156V160H351.156ZM451.289 160V20H491.289V64H532.089C545.556 64 556.422 68.8 564.689 78.4C573.089 88 577.289 99.2 577.289 112C577.289 124.8 573.089 136 564.689 145.6C556.422 155.2 545.556 160 532.089 160H451.289ZM524.089 126C527.822 126 530.822 125 533.089 123C535.356 121 536.756 119.133 537.289 117.4C537.822 115.533 538.089 113.733 538.089 112C538.089 110.267 537.822 108.533 537.289 106.8C536.756 104.933 535.356 103 533.089 101C530.822 99 527.822 98 524.089 98H491.289V126H524.089ZM317.828 604C297.428 604 279.961 596.8 265.428 582.4C251.028 567.867 243.828 550.4 243.828 530C243.828 509.6 251.028 492.2 265.428 477.8C279.961 463.267 297.428 456 317.828 456C329.561 456 340.495 458.6 350.628 463.8C360.895 468.867 369.428 475.867 376.228 484.8L349.028 507.4C341.428 498.733 331.228 494.4 318.428 494.4C308.828 494.4 300.628 497.8 293.828 504.6C287.161 511.267 283.828 519.733 283.828 530C283.828 540.267 287.161 548.8 293.828 555.6C300.628 562.267 308.828 565.6 318.428 565.6C331.228 565.6 341.428 561.267 349.028 552.6L376.228 575.2C369.428 584.133 360.895 591.2 350.628 596.4C340.495 601.467 329.561 604 317.828 604ZM424.203 600V496H380.203V460H508.203V496H464.203V600H424.203ZM598.219 600L591.019 581H540.419L533.219 600H492.219L545.219 460H586.219L639.219 600H598.219ZM552.619 549H578.819L565.819 514.2L552.619 549ZM631.328 600L683.728 530L631.328 460H677.928L716.328 511.2V460H756.328V511.2L794.728 460H841.328L788.928 530L841.328 600H794.728L756.328 548.8V600H716.328V548.8L677.928 600H631.328ZM853.438 600V460H965.438V496H893.438V514H961.438V546H893.438V564H965.438V600H853.438ZM896.638 444.2C892.771 448.067 888.038 450 882.438 450C876.838 450 872.104 448.067 868.238 444.2C864.371 440.333 862.438 435.6 862.438 430C862.438 424.4 864.371 419.667 868.238 415.8C872.104 411.933 876.838 410 882.438 410C888.038 410 892.771 411.933 896.638 415.8C900.504 419.667 902.438 424.4 902.438 430C902.438 435.6 900.504 440.333 896.638 444.2ZM950.637 444.2C946.771 448.067 942.038 450 936.438 450C930.838 450 926.104 448.067 922.238 444.2C918.371 440.333 916.438 435.6 916.438 430C916.438 424.4 918.371 419.667 922.238 415.8C926.104 411.933 930.838 410 936.438 410C942.038 410 946.771 411.933 950.637 415.8C954.504 419.667 956.438 424.4 956.438 430C956.438 435.6 954.504 440.333 950.637 444.2ZM1066.27 556H1025.47V600H985.469V460H1066.27C1079.74 460 1090.6 464.8 1098.87 474.4C1107.27 484 1111.47 495.2 1111.47 508C1111.47 520.8 1107.27 532 1098.87 541.6C1090.6 551.2 1079.74 556 1066.27 556ZM1058.27 522C1062 522 1065 521 1067.27 519C1069.54 517 1070.94 515.133 1071.47 513.4C1072 511.533 1072.27 509.733 1072.27 508C1072.27 506.267 1072 504.533 1071.47 502.8C1070.94 500.933 1069.54 499 1067.27 497C1065 495 1062 494 1058.27 494H1025.47V522H1058.27ZM1203.49 600L1196.29 581H1145.69L1138.49 600H1097.49L1150.49 460H1191.49L1244.49 600H1203.49ZM1157.89 549H1184.09L1171.09 514.2L1157.89 549Z" fill="#1CBC78"/>
<path d="M17.5 380V240H57.5L101.5 315.6L145.3 240H185.3V380H145.3V310.6L116.7 360H86.1L57.5 310.6V380H17.5ZM329.497 362.4C315.097 376.8 297.697 384 277.297 384C256.897 384 239.43 376.8 224.897 362.4C210.497 347.867 203.297 330.4 203.297 310C203.297 289.6 210.497 272.2 224.897 257.8C239.43 243.267 256.897 236 277.297 236C297.697 236 315.097 243.267 329.497 257.8C344.03 272.2 351.297 289.6 351.297 310C351.297 330.4 344.03 347.867 329.497 362.4ZM252.897 285.2C246.497 291.867 243.297 300.133 243.297 310C243.297 319.867 246.497 328.2 252.897 335C259.43 341.667 267.564 345 277.297 345C287.03 345 295.097 341.667 301.497 335C308.03 328.2 311.297 319.867 311.297 310C311.297 300.133 308.03 291.867 301.497 285.2C295.097 278.4 287.03 275 277.297 275C267.564 275 259.43 278.4 252.897 285.2ZM353.148 380V348H358.348C363.015 348 366.482 346.467 368.748 343.4C371.148 340.333 373.082 335.867 374.548 330L396.748 240H491.148V380H451.148V276H426.548L407.548 353.2C403.148 371.067 390.348 380 369.148 380H353.148ZM635.348 362.4C620.948 376.8 603.548 384 583.148 384C562.748 384 545.282 376.8 530.748 362.4C516.348 347.867 509.148 330.4 509.148 310C509.148 289.6 516.348 272.2 530.748 257.8C545.282 243.267 562.748 236 583.148 236C603.548 236 620.948 243.267 635.348 257.8C649.882 272.2 657.148 289.6 657.148 310C657.148 330.4 649.882 347.867 635.348 362.4ZM558.748 285.2C552.348 291.867 549.148 300.133 549.148 310C549.148 319.867 552.348 328.2 558.748 335C565.282 341.667 573.415 345 583.148 345C592.882 345 600.948 341.667 607.348 335C613.882 328.2 617.148 319.867 617.148 310C617.148 300.133 613.882 291.867 607.348 285.2C600.948 278.4 592.882 275 583.148 275C573.415 275 565.282 278.4 558.748 285.2ZM657.047 402V348H662.247C666.914 348 670.38 346.467 672.647 343.4C675.047 340.333 676.98 335.867 678.447 330L700.647 240H795.047V344H807.047V402H767.047V380H697.047V402H657.047ZM713.647 344H755.047V276H730.447L713.647 344ZM942.177 362.4C927.777 376.8 910.377 384 889.977 384C869.577 384 852.11 376.8 837.577 362.4C823.177 347.867 815.977 330.4 815.977 310C815.977 289.6 823.177 272.2 837.577 257.8C852.11 243.267 869.577 236 889.977 236C910.377 236 927.777 243.267 942.177 257.8C956.71 272.2 963.977 289.6 963.977 310C963.977 330.4 956.71 347.867 942.177 362.4ZM865.577 285.2C859.177 291.867 855.977 300.133 855.977 310C855.977 319.867 859.177 328.2 865.577 335C872.11 341.667 880.243 345 889.977 345C899.71 345 907.777 341.667 914.177 335C920.71 328.2 923.977 319.867 923.977 310C923.977 300.133 920.71 291.867 914.177 285.2C907.777 278.4 899.71 275 889.977 275C880.243 275 872.11 278.4 865.577 285.2ZM981.93 380V240H1085.93V276H1021.93V380H981.93ZM1218.15 362.4C1203.75 376.8 1186.35 384 1165.95 384C1145.55 384 1128.08 376.8 1113.55 362.4C1099.15 347.867 1091.95 330.4 1091.95 310C1091.95 289.6 1099.15 272.2 1113.55 257.8C1128.08 243.267 1145.55 236 1165.95 236C1186.35 236 1203.75 243.267 1218.15 257.8C1232.68 272.2 1239.95 289.6 1239.95 310C1239.95 330.4 1232.68 347.867 1218.15 362.4ZM1141.55 285.2C1135.15 291.867 1131.95 300.133 1131.95 310C1131.95 319.867 1135.15 328.2 1141.55 335C1148.08 341.667 1156.21 345 1165.95 345C1175.68 345 1183.75 341.667 1190.15 335C1196.68 328.2 1199.95 319.867 1199.95 310C1199.95 300.133 1196.68 291.867 1190.15 285.2C1183.75 278.4 1175.68 275 1165.95 275C1156.21 275 1148.08 278.4 1141.55 285.2Z" fill="#7241C1"/>
<path d="M634.5 99H1246.5" stroke="#1CBC78" stroke-width="10" stroke-linecap="square"/>
<path d="M5 529L4.37114e-07 529L-4.37114e-07 539L5 539L5 534L5 529ZM187.536 537.536C189.488 535.583 189.488 532.417 187.536 530.464L155.716 498.645C153.763 496.692 150.597 496.692 148.645 498.645C146.692 500.597 146.692 503.763 148.645 505.716L176.929 534L148.645 562.284C146.692 564.237 146.692 567.403 148.645 569.355C150.597 571.308 153.763 571.308 155.716 569.355L187.536 537.536ZM5 534L5 539L184 539L184 534L184 529L5 529L5 534Z" fill="#1CBC78"/>
</svg>
