<svg width="1365" height="703" viewBox="0 0 1365 703" fill="none" xmlns="http://www.w3.org/2000/svg">
<path d="M0 50C0 22.3858 22.3858 0 50 0H652C679.614 0 702 22.3858 702 50V253H0V50Z" fill="white"/>
<path d="M0 225H1315C1342.61 225 1365 247.386 1365 275V478H50C22.3858 478 0 455.614 0 428V225Z" fill="white"/>
<path d="M241 450H1365V653C1365 680.614 1342.61 703 1315 703H291C263.386 703 241 680.614 241 653V450Z" fill="white"/>
<path d="M72 203V63H200V203H160V99H112V203H72ZM239.706 203L269.306 151L211.906 63H258.306L290.106 114.2L319.106 63H361.506L282.106 203H239.706ZM405.656 203V99H361.656V63H489.656V99H445.656V203H405.656ZM505.789 203V63H545.789V107H586.589C600.056 107 610.922 111.8 619.189 121.4C627.589 131 631.789 142.2 631.789 155C631.789 167.8 627.589 179 619.189 188.6C610.922 198.2 600.056 203 586.589 203H505.789ZM578.589 169C582.322 169 585.322 168 587.589 166C589.856 164 591.256 162.133 591.789 160.4C592.322 158.533 592.589 156.733 592.589 155C592.589 153.267 592.322 151.533 591.789 149.8C591.256 147.933 589.856 146 587.589 144C585.322 142 582.322 141 578.589 141H545.789V169H578.589ZM372.328 647C351.928 647 334.461 639.8 319.928 625.4C305.528 610.867 298.328 593.4 298.328 573C298.328 552.6 305.528 535.2 319.928 520.8C334.461 506.267 351.928 499 372.328 499C384.061 499 394.995 501.6 405.128 506.8C415.395 511.867 423.928 518.867 430.728 527.8L403.528 550.4C395.928 541.733 385.728 537.4 372.928 537.4C363.328 537.4 355.128 540.8 348.328 547.6C341.661 554.267 338.328 562.733 338.328 573C338.328 583.267 341.661 591.8 348.328 598.6C355.128 605.267 363.328 608.6 372.928 608.6C385.728 608.6 395.928 604.267 403.528 595.6L430.728 618.2C423.928 627.133 415.395 634.2 405.128 639.4C394.995 644.467 384.061 647 372.328 647ZM478.703 643V539H434.703V503H562.703V539H518.703V643H478.703ZM652.719 643L645.519 624H594.919L587.719 643H546.719L599.719 503H640.719L693.719 643H652.719ZM607.119 592H633.319L620.319 557.2L607.119 592ZM685.828 643L738.228 573L685.828 503H732.428L770.828 554.2V503H810.828V554.2L849.228 503H895.828L843.428 573L895.828 643H849.228L810.828 591.8V643H770.828V591.8L732.428 643H685.828ZM907.938 643V503H1019.94V539H947.938V557H1015.94V589H947.938V607H1019.94V643H907.938ZM951.138 487.2C947.271 491.067 942.538 493 936.938 493C931.338 493 926.604 491.067 922.738 487.2C918.871 483.333 916.938 478.6 916.938 473C916.938 467.4 918.871 462.667 922.738 458.8C926.604 454.933 931.338 453 936.938 453C942.538 453 947.271 454.933 951.138 458.8C955.004 462.667 956.938 467.4 956.938 473C956.938 478.6 955.004 483.333 951.138 487.2ZM1005.14 487.2C1001.27 491.067 996.538 493 990.938 493C985.338 493 980.604 491.067 976.738 487.2C972.871 483.333 970.938 478.6 970.938 473C970.938 467.4 972.871 462.667 976.738 458.8C980.604 454.933 985.338 453 990.938 453C996.538 453 1001.27 454.933 1005.14 458.8C1009 462.667 1010.94 467.4 1010.94 473C1010.94 478.6 1009 483.333 1005.14 487.2ZM1120.77 599H1079.97V643H1039.97V503H1120.77C1134.24 503 1145.1 507.8 1153.37 517.4C1161.77 527 1165.97 538.2 1165.97 551C1165.97 563.8 1161.77 575 1153.37 584.6C1145.1 594.2 1134.24 599 1120.77 599ZM1112.77 565C1116.5 565 1119.5 564 1121.77 562C1124.04 560 1125.44 558.133 1125.97 556.4C1126.5 554.533 1126.77 552.733 1126.77 551C1126.77 549.267 1126.5 547.533 1125.97 545.8C1125.44 543.933 1124.04 542 1121.77 540C1119.5 538 1116.5 537 1112.77 537H1079.97V565H1112.77ZM1257.99 643L1250.79 624H1200.19L1192.99 643H1151.99L1204.99 503H1245.99L1298.99 643H1257.99ZM1212.39 592H1238.59L1225.59 557.2L1212.39 592Z" fill="#1CBC78"/>
<path d="M72 423V283H112L156 358.6L199.8 283H239.8V423H199.8V353.6L171.2 403H140.6L112 353.6V423H72ZM383.997 405.4C369.597 419.8 352.197 427 331.797 427C311.397 427 293.93 419.8 279.397 405.4C264.997 390.867 257.797 373.4 257.797 353C257.797 332.6 264.997 315.2 279.397 300.8C293.93 286.267 311.397 279 331.797 279C352.197 279 369.597 286.267 383.997 300.8C398.53 315.2 405.797 332.6 405.797 353C405.797 373.4 398.53 390.867 383.997 405.4ZM307.397 328.2C300.997 334.867 297.797 343.133 297.797 353C297.797 362.867 300.997 371.2 307.397 378C313.93 384.667 322.064 388 331.797 388C341.53 388 349.597 384.667 355.997 378C362.53 371.2 365.797 362.867 365.797 353C365.797 343.133 362.53 334.867 355.997 328.2C349.597 321.4 341.53 318 331.797 318C322.064 318 313.93 321.4 307.397 328.2ZM407.648 423V391H412.848C417.515 391 420.982 389.467 423.248 386.4C425.648 383.333 427.582 378.867 429.048 373L451.248 283H545.648V423H505.648V319H481.048L462.048 396.2C457.648 414.067 444.848 423 423.648 423H407.648ZM689.848 405.4C675.448 419.8 658.048 427 637.648 427C617.248 427 599.782 419.8 585.248 405.4C570.848 390.867 563.648 373.4 563.648 353C563.648 332.6 570.848 315.2 585.248 300.8C599.782 286.267 617.248 279 637.648 279C658.048 279 675.448 286.267 689.848 300.8C704.382 315.2 711.648 332.6 711.648 353C711.648 373.4 704.382 390.867 689.848 405.4ZM613.248 328.2C606.848 334.867 603.648 343.133 603.648 353C603.648 362.867 606.848 371.2 613.248 378C619.782 384.667 627.915 388 637.648 388C647.382 388 655.448 384.667 661.848 378C668.382 371.2 671.648 362.867 671.648 353C671.648 343.133 668.382 334.867 661.848 328.2C655.448 321.4 647.382 318 637.648 318C627.915 318 619.782 321.4 613.248 328.2ZM711.547 445V391H716.747C721.414 391 724.88 389.467 727.147 386.4C729.547 383.333 731.48 378.867 732.947 373L755.147 283H849.547V387H861.547V445H821.547V423H751.547V445H711.547ZM768.147 387H809.547V319H784.947L768.147 387ZM996.677 405.4C982.277 419.8 964.877 427 944.477 427C924.077 427 906.61 419.8 892.077 405.4C877.677 390.867 870.477 373.4 870.477 353C870.477 332.6 877.677 315.2 892.077 300.8C906.61 286.267 924.077 279 944.477 279C964.877 279 982.277 286.267 996.677 300.8C1011.21 315.2 1018.48 332.6 1018.48 353C1018.48 373.4 1011.21 390.867 996.677 405.4ZM920.077 328.2C913.677 334.867 910.477 343.133 910.477 353C910.477 362.867 913.677 371.2 920.077 378C926.61 384.667 934.743 388 944.477 388C954.21 388 962.277 384.667 968.677 378C975.21 371.2 978.477 362.867 978.477 353C978.477 343.133 975.21 334.867 968.677 328.2C962.277 321.4 954.21 318 944.477 318C934.743 318 926.61 321.4 920.077 328.2ZM1036.43 423V283H1140.43V319H1076.43V423H1036.43ZM1272.65 405.4C1258.25 419.8 1240.85 427 1220.45 427C1200.05 427 1182.58 419.8 1168.05 405.4C1153.65 390.867 1146.45 373.4 1146.45 353C1146.45 332.6 1153.65 315.2 1168.05 300.8C1182.58 286.267 1200.05 279 1220.45 279C1240.85 279 1258.25 286.267 1272.65 300.8C1287.18 315.2 1294.45 332.6 1294.45 353C1294.45 373.4 1287.18 390.867 1272.65 405.4ZM1196.05 328.2C1189.65 334.867 1186.45 343.133 1186.45 353C1186.45 362.867 1189.65 371.2 1196.05 378C1202.58 384.667 1210.71 388 1220.45 388C1230.18 388 1238.25 384.667 1244.65 378C1251.18 371.2 1254.45 362.867 1254.45 353C1254.45 343.133 1251.18 334.867 1244.65 328.2C1238.25 321.4 1230.18 318 1220.45 318C1210.71 318 1202.58 321.4 1196.05 328.2Z" fill="#7241C1"/>
</svg>
